<svg xmlns="http://www.w3.org/2000/svg" xmlns:xlink="http://www.w3.org/1999/xlink" version="1.1" x="0px" y="0px" viewBox="0 0 256 256" enable-background="new 0 0 256 256" xml:space="preserve">
<metadata> Svg Vector Icons : http://www.onlinewebfonts.com/icon </metadata>
<g><g><g><path fill="#000000" d="M116.7,10.3C88.9,13.2,64,24.9,44.4,44.5c-18.8,18.8-29.9,41.6-33.9,69c-0.8,5.5-0.8,23.6,0,29.1c3.9,27.4,15.1,50.3,33.9,69c18.7,18.7,41.7,30,69,33.9c5.4,0.8,23.6,0.8,29.1,0c22.6-3.2,42.9-11.8,59.6-25.4c23.8-19.2,38.8-46.1,43.3-77.5c0.8-5.5,0.8-23.6,0-29.1c-3.9-27.3-15.1-50.3-33.9-69c-18.3-18.3-40.6-29.5-66.9-33.5C138.8,10.1,122.6,9.6,116.7,10.3z M146,79.1c0,0.4-17.8,61.1-25.2,86c-0.2,0.7-0.9,0.8-6.2,0.8c-3.3,0-6-0.1-6-0.3c0-0.5,24.9-84.9,25.4-86c0.4-1,0.6-1,6.2-1C144.1,78.6,146,78.8,146,79.1z M99.8,103.5c0,4.2-0.2,6.1-0.6,6.4c-0.3,0.2-10.1,4.6-21.7,9.7c-11.6,5-21.2,9.3-21.2,9.5c0,0.1,9.7,4.5,21.6,9.7l21.6,9.5l0.1,6.3c0,3.5,0,6.3-0.2,6.3c-0.2,0-13.2-6-28.8-13.3l-28.4-13.3V129v-5.2l28.2-13.1c15.5-7.2,28.5-13.1,28.8-13.1C99.7,97.5,99.8,99,99.8,103.5z M181.8,110.2c14.7,6.8,27.3,12.6,27.9,12.8c1,0.5,1.1,0.6,0.9,6l-0.1,5.5l-24,11c-13.2,6.1-26.1,11.9-28.5,13l-4.5,2.1v-6.3v-6.3l21.9-9.4c12.1-5.2,21.9-9.5,21.9-9.7c0-0.1-9.9-4.5-21.9-9.7l-21.9-9.4v-6.2c0-5.7,0-6.2,0.8-6C154.7,97.8,167.1,103.5,181.8,110.2z"/></g></g></g>
</svg>

